# xmcd CD database file
#
# Track frame offsets:
#	150
#	12287
#	34423
#	49438
#	67137
#	81838
#	99962
#	114199
#	134558
#	153084
#	164280
#	172351
#	184848
#	203060
#	222118
#	237869
#	250972
#	255485
#
# Disc length: 3636 seconds
#
# Revision: 1
# Processed by: cddbd v1.5.2PL0 Copyright (c) Steve Scherf et al.
# Submitted via: CDex 2.21
#
DISCID=fd0e3212
DTITLE=Alexandra Scott - I Love you so Much Always
DYEAR=2013
DGENRE=Country
TTITLE0=To Get Over
TTITLE1=Smell of Cut Grass
TTITLE2=Coney Island Baby
TTITLE3=Gas Station Lover
TTITLE4=Sorrow on a White Horse
TTITLE5=If I Go to Heaven
TTITLE6=Stranger
TTITLE7=Elvis
TTITLE8=That Honey
TTITLE9=I'm on Fire
TTITLE10=La Vie Est Vaine
TTITLE11=Little Black Cloud
TTITLE12=My Moonbeam
TTITLE13=Clam Crab Cockle Cowrie
TTITLE14=Your Shirt is a Window
TTITLE15=Hymn
TTITLE16=Duet
TTITLE17=Gas Station Lover (Radio Edit)
EXTD=YEAR: 2013
EXTT0=
EXTT1=
EXTT2=
EXTT3=
EXTT4=
EXTT5=
EXTT6=
EXTT7=
EXTT8=
EXTT9=
EXTT10=
EXTT11=
EXTT12=
EXTT13=
EXTT14=
EXTT15=
EXTT16=
EXTT17=
PLAYORDER=
